<?xml version="1.0" encoding="utf-8"?>
<!-- Generator: Adobe Illustrator 19.0.0, SVG Export Plug-In . SVG Version: 6.00 Build 0)  -->
<svg fill="#161E2D" version="1.1" id="Laag_1" xmlns="http://www.w3.org/2000/svg" xmlns:xlink="http://www.w3.org/1999/xlink" x="0px" y="0px"
	 viewBox="0 0 800 800" style="enable-background:new 0 0 800 800;" xml:space="preserve">
<g id="XMLID_11_">
	<path id="XMLID_23_" d="M399.5,3.6C180.9,3.6,3.1,181.4,3.1,400c0,216.6,176.7,394.4,393.9,396.4l0.2-20.8h0.3v-79c0,0,0,0,0,0V655
		c-56.7,0-85.9-22.7-105-66.7h117.4v62.7v15.7v88c-0.2,0-0.3,0-0.5,0l0.5,16.2v4.7h0.1l0.6,20.7c7.8-0.2,15.6-0.7,23.3-1.3
		c203-17.5,362-190.9,362-394.9C795.9,181.4,618.1,3.6,399.5,3.6z M451.6,750.9v-61.1c123.6-15.7,206.9-104.6,206.9-226.9h-41.6
		c0,84.1-51.6,168.7-165.2,184.8v-63.1c60.1-12.7,99.7-59,99.7-121.5h-41.6c0,57.7-46.3,83.5-92.2,83.5h-139
		c-5.9-22.3-11-48.2-16.4-77.2c77.2-19.1,202.5-63,202.5-167.4c0-93-70.2-146.4-192.6-146.4v41.6c56.4,0,150.9,13.6,150.9,104.7
		c0,60.7-65.9,104.5-201.1,133.8l-8,1.5c0,0.1,0,0.2,0,0.2c-0.2,0-0.3,0.1-0.5,0.1l4.7,22.4c0.6,3.3,1.3,6.8,1.9,10.1
		c18.9,103.4,36.9,201.6,136,222.4v59.4c-15.8-2-31.3-5-46.4-9c6.1-4.1,12.3-8.8,18.3-14.1c-15.2-5.2-29.7-11.6-43.5-19.1
		c-12.6,8.1-24.2,12.8-28.1,14.3c-13.6-6.1-26.7-12.9-39.4-20.6c11.3-3.8,23.6-8.4,35.7-13.9c-12.6-9.2-24.4-19.3-35.3-30.3
		c-16.8,6.3-32.9,10.7-43.7,13.4c-9.6-8-18.7-16.4-27.4-25.3c14.5-2.9,31.6-7,49.3-12.5c-9-11.4-17-23.6-24.2-36.3
		c-22.6,6.3-43.4,10-56.6,12c-8.4-11.2-16-23-23-35.2c16.8-2.1,39.4-5.5,63.3-10.8c-5.2-12.9-9.5-26.2-12.8-39.8
		c-28.8,6.1-55.8,9.4-70.2,10.9C66.3,522,61.5,508,57.5,493.7c19.9-1,49-2.7,78.5-5.1c-2.7-13.6-3.6-18.9-4.9-30.6
		c-0.4-3.7-0.8-7.3-0.9-11.1c-32.4,2.7-63,4.5-81.6,5.4c-2.6-17.1-3.9-34.6-3.9-52.4c0-195.6,159.2-354.8,354.8-354.8
		S754.3,204.4,754.3,400C754.3,575.4,623,725.5,451.6,750.9z"/>
	<path id="XMLID_24_" d="M234.3,307.6c-21.3,0-38.7,17.4-38.7,38.7s17.4,38.7,38.7,38.7s38.7-17.4,38.7-38.7
		S255.6,307.6,234.3,307.6z"/>
</g>
</svg>
